<?xml version="1.0" encoding="UTF-8"?>
<svg id="Layer_2" data-name="Layer 2" xmlns="http://www.w3.org/2000/svg" xmlns:xlink="http://www.w3.org/1999/xlink" viewBox="0 0 40 40">
  <defs>
    <style>
      .cls-1 {
        fill: url(#linear-gradient-2);
      }

      .cls-2 {
        fill: #231f20;
        opacity: 0;
      }

      .cls-3 {
        fill: url(#linear-gradient-4);
      }

      .cls-4 {
        fill: url(#linear-gradient-3);
      }

      .cls-5 {
        fill: url(#linear-gradient-5);
      }

      .cls-6 {
        fill: url(#linear-gradient-6);
      }

      .cls-7 {
        fill: url(#linear-gradient);
      }
    </style>
    <linearGradient id="linear-gradient" x1="5.77" y1="9.03" x2="5.77" y2="30.41" gradientUnits="userSpaceOnUse">
      <stop offset="0" stop-color="#ee285f"/>
      <stop offset="1" stop-color="#fff200"/>
    </linearGradient>
    <linearGradient id="linear-gradient-2" x1="9.9" y1="9.03" x2="9.9" y2="30.41" xlink:href="#linear-gradient"/>
    <linearGradient id="linear-gradient-3" x1="20" y1="9.03" x2="20" y2="30.41" xlink:href="#linear-gradient"/>
    <linearGradient id="linear-gradient-4" x1="29.91" y1="9.03" x2="29.91" y2="30.41" xlink:href="#linear-gradient"/>
    <linearGradient id="linear-gradient-5" x1="32.4" y1="9.03" x2="32.4" y2="30.41" xlink:href="#linear-gradient"/>
    <linearGradient id="linear-gradient-6" x1="36.17" y1="9.03" x2="36.17" y2="30.41" xlink:href="#linear-gradient"/>
  </defs>
  <g id="Layer_1-2" data-name="Layer 1">
    <g>
      <polygon class="cls-7" points="11.54 14.05 11.54 16.7 2.62 19.9 2.62 20.12 7.79 21.98 6.05 23.71 0 21.23 0 18.8 11.54 14.05"/>
      <polygon class="cls-1" points="10.11 22.81 11.54 23.32 11.54 25.97 8.27 24.63 10.11 22.81"/>
      <path class="cls-4" d="M14.22,11.45v4.16l4.19-4.16h-4.19ZM24.12,12.88c-.7-.61-1.62-1.02-2.75-1.24l-2.12,2.1c1.32,0,2.31.28,2.98.85.67.57,1.01,1.41,1.01,2.52,0,1.26-.34,2.22-1.01,2.87-.67.65-1.67.98-2.99.98h-2.63v-4.62l-2.41,2.39v9.82h2.41v-5.3h2.63c2.14,0,3.77-.52,4.87-1.56,1.1-1.04,1.66-2.57,1.66-4.58,0-1.86-.55-3.27-1.66-4.23Z"/>
      <polygon class="cls-3" points="28.46 23.32 31.36 22.22 28.46 25.09 28.46 23.32"/>
      <polygon class="cls-5" points="34.58 19.03 28.46 16.7 28.46 14.05 36.33 17.29 34.58 19.03"/>
      <polygon class="cls-6" points="40 18.8 40 21.23 32.34 24.38 36.47 20.28 36.89 20.12 36.89 19.9 36.86 19.89 38.56 18.2 40 18.8"/>
    </g>
    <rect class="cls-2" width="40" height="40"/>
  </g>
</svg>